<svg width="46" height="46" viewBox="0 0 46 46" fill="none" xmlns="http://www.w3.org/2000/svg">
<g id="&#208;&#186;&#208;&#190;&#209;&#128;&#208;&#183;&#208;&#184;&#208;&#189;&#208;&#176; 1">
<g id="&#208;&#161;&#208;&#187;&#208;&#190;&#208;&#185;_x0020_1">
<path id="&#208;&#186;&#208;&#190;&#209;&#128;&#208;&#183;&#208;&#184;&#208;&#189;&#208;&#176;" d="M9.13155 7.94168L9.08091 7.8166C8.81314 7.14908 8.64971 6.81301 8.50085 6.74165C8.1924 6.59357 7.3768 6.62426 5.83918 6.68181L4.63608 6.72402C4.18416 6.73628 2.99259 6.73092 2.14934 6.72632L1.40738 6.72323C0.663125 6.72093 0.0623428 6.11401 0.0646428 5.36975C0.0669428 4.6255 0.673858 4.02474 1.41812 4.02704L2.16007 4.0301C2.97493 4.03394 4.12585 4.0393 4.56473 4.0278L5.74402 3.98559C7.71133 3.91195 8.75251 3.87204 9.66403 4.30939C10.6316 4.77283 11.039 5.47181 11.5738 6.78539C13.9961 10.987 16.248 10.9732 20.6745 10.9471L41.8068 10.9509C42.3531 10.9456 42.8587 11.0269 43.3145 11.1773L43.4449 11.2279C44.1569 11.4911 44.7324 11.9254 45.1421 12.4993C45.5741 13.1039 45.8081 13.8397 45.8081 14.6622C45.8081 15.1571 45.7176 15.6965 45.5281 16.2674L42.5096 25.3512C41.7408 27.666 41.0686 28.9589 39.9039 29.7523C38.7292 30.5533 37.3382 30.6745 35.0962 30.6745L18.7747 30.673C16.9478 30.6784 15.246 30.2073 13.9163 29.1668C12.6955 28.2093 11.8209 26.8067 11.4948 24.8939C11.2354 23.3716 11.0129 20.9516 10.7804 18.4035C10.4229 14.4927 10.0339 10.2566 9.45918 8.7803L9.13155 7.94168ZM34.6642 31.8063C35.7315 31.8063 36.7044 32.2421 37.4095 32.9464C38.1192 33.6569 38.5551 34.6298 38.5551 35.6971C38.5551 36.7644 38.1192 37.7365 37.4149 38.4424C36.7044 39.1521 35.7315 39.588 34.6642 39.588C33.5969 39.588 32.6248 39.1521 31.9189 38.4478C31.2092 37.7365 30.7733 36.7644 30.7733 35.6971C30.7733 34.6298 31.2092 33.6569 31.9135 32.9518C32.6248 32.2421 33.5969 31.8063 34.6642 31.8063ZM35.5036 34.857C35.2911 34.6444 34.9941 34.5132 34.6642 34.5132C34.3343 34.5132 34.0373 34.6444 33.8271 34.8547C33.6115 35.0702 33.4803 35.3672 33.4803 35.6971C33.4803 36.027 33.6115 36.324 33.8217 36.5342C34.0373 36.7498 34.3343 36.881 34.6642 36.881C34.9941 36.881 35.2911 36.7498 35.5013 36.5396C35.7169 36.324 35.8481 36.027 35.8481 35.6971C35.8481 35.3672 35.7169 35.0702 35.5036 34.857ZM19.819 31.8063C20.8862 31.8063 21.8591 32.2421 22.5643 32.9464C23.274 33.6569 23.7098 34.6298 23.7098 35.6971C23.7098 36.7644 23.274 37.7365 22.5696 38.4424C21.8591 39.1521 20.8862 39.588 19.819 39.588C18.7517 39.588 17.7795 39.1521 17.0736 38.4478C16.3639 37.7365 15.9281 36.7644 15.9281 35.6971C15.9281 34.6298 16.3639 33.6569 17.0683 32.9518C17.7795 32.2421 18.7517 31.8063 19.819 31.8063ZM20.6583 34.857C20.4458 34.6444 20.1489 34.5132 19.819 34.5132C19.489 34.5132 19.1921 34.6444 18.9818 34.8547C18.7662 35.0702 18.635 35.3672 18.635 35.6971C18.635 36.027 18.7662 36.324 18.9765 36.5342C19.1921 36.7498 19.489 36.881 19.819 36.881C20.1489 36.881 20.4458 36.7498 20.656 36.5396C20.8717 36.324 21.0029 36.027 21.0029 35.6971C21.0029 35.3672 20.8717 35.0702 20.6583 34.857ZM20.686 13.6433C17.2954 13.664 14.9391 13.6778 12.8751 12.3619C13.0991 14.1558 13.2864 16.1976 13.4659 18.161C13.6899 20.614 13.904 22.9442 14.1587 24.4396C14.3628 25.6397 14.8738 26.4906 15.5767 27.0415C16.3946 27.6814 17.5209 27.9714 18.7747 27.9714L35.0962 27.9729C36.8041 27.9676 37.8131 27.9085 38.3817 27.521C38.9587 27.1282 39.3799 26.222 39.95 24.5056L42.9684 15.4218C43.0574 15.1518 43.1012 14.8963 43.1012 14.6622C43.1012 14.4113 43.0452 14.208 42.9431 14.0645C42.8541 13.9395 42.7168 13.8374 42.5388 13.7668L42.4689 13.7461C42.2848 13.6855 42.063 13.6525 41.8068 13.6525L20.686 13.6433Z" fill="#2B2A29"/>
</g>
</g>
</svg>
