<svg width="54" height="54" viewBox="0 0 54 54" fill="none" xmlns="http://www.w3.org/2000/svg">
<g id="instagram 1" clip-path="url(#clip0_140_37)">
<path id="Vector" d="M27 13C19.2634 13 13 19.2702 13 27C13 34.7366 19.2702 41 27 41C34.7366 41 41 34.7298 41 27C41 19.2634 34.7298 13 27 13ZM27 36.087C21.9779 36.087 17.913 32.0198 17.913 27C17.913 21.9802 21.9802 17.913 27 17.913C32.0198 17.913 36.087 21.9802 36.087 27C36.0893 32.0198 32.0221 36.087 27 36.087Z" fill="#6B9D52"/>
<path id="Vector_2" d="M38.1335 0.169617C33.1655 -0.0621289 20.8603 -0.0508791 15.8878 0.169617C11.5183 0.374363 7.66401 1.42959 4.55676 4.53679C-0.636239 9.7297 0.0275113 16.7271 0.0275113 26.9891C0.0275113 37.492 -0.557489 44.3273 4.55676 49.4415C9.77001 54.6524 16.8688 53.9707 27.0095 53.9707C37.4135 53.9707 41.0045 53.9774 44.6833 52.5532C49.685 50.6115 53.4605 46.1408 53.8295 38.1107C54.0635 33.1405 54.05 20.8378 53.8295 15.8653C53.384 6.38626 48.2968 0.637609 38.1335 0.169617ZM45.9973 46.0058C42.593 49.41 37.8703 49.1063 26.9443 49.1063C15.6943 49.1063 11.183 49.2728 7.89126 45.9721C4.10001 42.1989 4.78626 36.1397 4.78626 26.9531C4.78626 14.5221 3.51051 5.56952 15.9868 4.93053C18.8533 4.82929 19.697 4.79554 26.9128 4.79554L27.014 4.86303C39.0043 4.86303 48.4115 3.60756 48.9763 16.0813C49.1045 18.9275 49.1338 19.7825 49.1338 26.9869C49.1315 38.1062 49.343 42.6444 45.9973 46.0058Z" fill="#6B9D52"/>
<path id="Vector_3" d="M41.5 16C43.433 16 45 14.433 45 12.5C45 10.567 43.433 9 41.5 9C39.567 9 38 10.567 38 12.5C38 14.433 39.567 16 41.5 16Z" fill="#6B9D52"/>
</g>
<defs>
<clipPath id="clip0_140_37">
<rect width="54" height="54" fill="white"/>
</clipPath>
</defs>
</svg>
