<svg width="52" height="52" viewBox="0 0 52 52" fill="none" xmlns="http://www.w3.org/2000/svg">
<g id="vk 1" clip-path="url(#clip0_40_7)">
<path id="Vector" d="M43.1492 28.2275C42.3085 27.1658 42.549 26.6935 43.1492 25.7445C43.16 25.7337 50.0998 16.144 50.8148 12.8918L50.8192 12.8897C51.1745 11.7045 50.8192 10.8335 49.101 10.8335H43.4157C41.9683 10.8335 41.301 11.581 40.9435 12.4173C40.9435 12.4173 38.0488 19.3463 33.9538 23.8378C32.6322 25.1357 32.0212 25.5517 31.2997 25.5517C30.9443 25.5517 30.3918 25.1357 30.3918 23.9505V12.8897C30.3918 11.4683 29.9867 10.8335 28.7885 10.8335H19.8488C18.941 10.8335 18.4015 11.4965 18.4015 12.114C18.4015 13.4617 20.449 13.7715 20.6613 17.5632V25.79C20.6613 27.5927 20.3342 27.9242 19.6083 27.9242C17.6757 27.9242 12.9848 20.967 10.205 13.0045C9.64383 11.4597 9.09567 10.8357 7.6375 10.8357H1.95C0.327167 10.8357 0 11.5832 0 12.4195C0 13.8972 1.93267 21.2443 8.98733 30.951C13.689 37.5767 20.3103 41.1668 26.3337 41.1668C29.9542 41.1668 30.3962 40.3695 30.3962 38.998C30.3962 32.667 30.069 32.069 31.8825 32.069C32.7232 32.069 34.1705 32.485 37.5505 35.6808C41.4137 39.4703 42.0485 41.1668 44.2108 41.1668H49.8962C51.5168 41.1668 52.338 40.3695 51.8657 38.7965C50.7845 35.488 43.4785 28.6825 43.1492 28.2275Z" fill="#6B9D52"/>
</g>
<defs>
<clipPath id="clip0_40_7">
<rect width="52" height="52" fill="white"/>
</clipPath>
</defs>
</svg>
